<svg xmlns:xlink="http://www.w3.org/1999/xlink" xmlns="http://www.w3.org/2000/svg" version="1.1" viewBox="0 0 200 200" height="200px" width="200px">
  <g fill-rule="evenodd" fill="#059DD3" stroke-width="1" stroke="none">
      <path d="M148,47.9c-4.2-11.3-15.1-18.8-27-18.8c-4,0-7.8,0.8-11.4,2.3c-8.4-8-19.4-12.4-31.1-12.4c-23.7,0-43.4,18.4-45.1,42
          C19.1,67,9.8,80.9,9.8,96.5c0,21.2,17.3,38.5,38.5,38.5c4.1,0,9,0,14.3,0l2.3-15.2l-16.4,0c-12.6,0-23-10.7-23-23.3
          c0-10.7,7.2-19.8,17.6-22.3l6.4-1.5L49,65.6l0-0.1c0-0.4-0.1-0.9-0.1-1.3c0-16.3,13.3-29.6,29.6-29.6c9.2,0,17.7,4.2,23.4,11.5
          l4.8,6.1l0.2-0.3c2.7-4.8,7.9-7.7,13.3-7.7c8.5,0,15.4,6.9,15.4,15.4c0,1.6-0.7,5.2-0.7,5.2l-0.1,0.4l0.4-0.1
          c0.1,0,5.9-1.6,12.2-1.6c15.5,0,28.1,12.6,28.1,28.1c0,15.5-12.6,28.1-28.1,28.1l-9.2,0l-8.5,15.3c7.9,0,14.3,0,18.2,0h0h0
          c23.9-0.7,43.3-20.2,43.3-43.4C191.1,67.9,171.8,48.3,148,47.9z"></path>
      <polygon points="87.3,76 115.6,76 100.1,119.8 123.1,119.9 89.1,180.1 96,135.2 76.7,135.2"></polygon>
  </g>
</svg>